<svg width="40" height="40" viewBox="0 0 40 40" fill="none" xmlns="http://www.w3.org/2000/svg">
<path d="M11.6908 11.4842C14.8902 11.4836 18.7973 12.9742 20.1902 18.3907L20.2985 18.6842C24.8432 11.936 19.402 6.06007 19.6191 5.10596C17.6597 5.74831 19.3279 9.22713 17.995 10.2118C15.9191 11.3348 8.36907 9.84184 7.14319 12.803C7.64084 12.1848 9.50025 11.4842 11.6908 11.4842Z" fill="#FAA92E"/>
<path d="M19.9921 5.0177C21.925 5.32006 28.415 12.5177 21.6885 19.113L21.4785 19.3506C21.4785 19.3495 21.4803 19.3495 21.4821 19.3489L21.4779 19.3506C29.5932 19.9124 31.9621 12.263 32.8962 11.9736C31.3609 10.5983 29.1821 13.7818 27.6638 13.1212C25.6544 11.883 23.1697 4.5977 19.9921 5.0177C19.9921 5.0177 19.9921 5.0177 19.9932 5.0177C19.9921 5.0177 19.9921 5.0177 19.9921 5.0177Z" fill="#7DA53A"/>
<path d="M28.935 28.6012C25.7379 28.6083 21.8356 27.1242 20.4403 21.7107C20.3991 21.6065 20.3591 21.5024 20.3215 21.3948C15.7785 28.1424 21.2173 34.0183 21.0015 34.9718C22.9609 34.3307 21.2944 30.8512 22.6262 29.8671C24.7026 28.7442 32.2532 30.2371 33.4785 27.2748C32.9791 27.8924 31.1221 28.5954 28.935 28.6012Z" fill="#2BA0D2"/>
<path d="M29.9779 22.9484C30.0455 20.5878 35.1126 14.7961 33.1608 12.2549C33.7773 13.8519 31.5732 21.1102 24.935 21.2055C23.9867 21.219 22.9473 21.0872 21.8132 20.7708L21.4908 20.7072C25.0614 28.0155 32.8708 26.2419 33.5897 26.9072C34.0126 24.889 30.1655 24.5931 29.9779 22.9484Z" fill="#2BA0D2"/>
<path d="M19.1055 20.763C19.115 20.7548 19.1214 20.7465 19.1302 20.7383L19.1426 20.726C11.0267 20.1648 8.65848 27.8148 7.72437 28.1036C9.26025 29.4795 11.4385 26.296 12.9561 26.9565C14.9685 28.1942 17.4502 35.4795 20.6279 35.0589C20.6244 35.0589 20.6191 35.0577 20.6144 35.0571C18.6679 34.7265 12.1408 27.5918 19.1055 20.763Z" fill="#2BA0D2"/>
<path d="M19.1156 19.3665L19.1297 19.3712C15.5585 12.0618 7.74851 13.8348 7.03263 13.1707C6.60851 15.1883 10.4556 15.4848 10.6415 17.1295C10.5762 19.4907 5.50675 25.2824 7.45969 27.8248C7.44969 27.7971 7.4391 27.7671 7.43087 27.7371C6.84734 25.723 9.91616 16.7483 19.1156 19.3665Z" fill="#2BA0D2"/>
<path d="M19.1156 19.3665C9.91618 16.7483 6.84736 25.723 7.43089 27.7365C7.43913 27.7677 7.44971 27.7971 7.45971 27.8242C7.31324 26.8936 8.49677 23.5565 11.2668 21.3189C13.145 19.7742 15.745 18.7465 19.1297 19.3706L19.1156 19.3665Z" fill="#9C9DA0"/>
<path d="M11.6908 11.4844C9.50025 11.4844 7.64084 12.185 7.14319 12.8026C8.08554 12.0397 13.625 11.1661 17.4667 14.4656C17.5279 14.5173 17.5879 14.5697 17.6467 14.6232C17.6473 14.6238 17.6473 14.625 17.6485 14.6256C18.7179 15.582 19.6379 16.8732 20.265 18.592L20.1902 18.3903C18.7973 12.975 14.8902 11.4838 11.6908 11.4844Z" fill="#9C9DA0"/>
<path d="M19.9938 5.01758C20.7332 5.30228 22.4779 7.27228 23.3397 9.9917C24.215 12.6988 24.2191 16.1329 21.4826 19.3482L21.6891 19.1129C28.415 12.5176 21.9267 5.31934 19.9938 5.01758Z" fill="#9C9DA0"/>
<path d="M33.4785 27.2741C33.2685 27.4258 32.8821 27.5776 32.3697 27.6988C30.4133 28.1776 26.6338 28.2341 23.645 25.997C22.3409 25.0411 21.1974 23.6611 20.4403 21.71C21.8356 27.1241 25.738 28.6076 28.935 28.6006C31.1221 28.5953 32.9791 27.8923 33.4785 27.2741Z" fill="#9C9DA0"/>
<path d="M33.1608 12.2549C33.2755 12.9914 32.5255 15.2614 30.8273 17.2908C30.8273 17.2908 30.825 17.2925 30.825 17.2931C30.7773 17.3508 30.7279 17.4078 30.6785 17.4643C30.6279 17.5231 30.5761 17.5808 30.5238 17.639C30.5238 17.639 30.5238 17.6396 30.5226 17.6419C29.2114 19.0931 27.3955 20.3596 25.0397 20.7608C25.0379 20.7608 25.0356 20.7608 25.0338 20.7614C24.9679 20.7725 24.9008 20.7819 24.8356 20.7914C24.7891 20.7984 24.7456 20.8055 24.7003 20.8119C24.6808 20.8143 24.6603 20.8155 24.6414 20.8184C23.6779 20.9402 22.6273 20.9172 21.4908 20.7066L21.8132 20.7702C22.9467 21.0866 23.9855 21.2184 24.9344 21.2049C31.5732 21.1096 33.7761 13.8525 33.1608 12.2549Z" fill="#9C9DA0"/>
<path d="M16.8509 28.2035C16.5362 25.8782 17.0044 23.2352 19.1427 20.7258L19.1309 20.7382C19.1215 20.7464 19.115 20.7547 19.1056 20.7629C12.1409 27.5917 18.668 34.7264 20.6139 35.057C20.6191 35.0576 20.6239 35.0588 20.6274 35.0588C19.7244 34.7135 17.3191 31.8635 16.8509 28.2035Z" fill="#9C9DA0"/>
</svg>
