<?xml version="1.0" encoding="utf-8"?>
<!-- Generator: Adobe Illustrator 15.0.0, SVG Export Plug-In . SVG Version: 6.00 Build 0)  -->
<!DOCTYPE svg PUBLIC "-//W3C//DTD SVG 1.1//EN" "http://www.w3.org/Graphics/SVG/1.1/DTD/svg11.dtd">
<svg version="1.1" id="Layer_1" xmlns="http://www.w3.org/2000/svg" xmlns:xlink="http://www.w3.org/1999/xlink" x="0px" y="0px"
	 width="168px" height="96px" viewBox="0 0 168 96" enable-background="new 0 0 168 96" xml:space="preserve">
<path fill="#008CCF" d="M47.347,9.814c-6.481,0-11.008,4.833-11.008,11.751c0,6.713,4.381,11.403,10.658,11.403
	c5.5,0,11.049-3.635,11.049-11.754C58.046,14.396,53.747,9.814,47.347,9.814z M53.099,21.348c0,4.475-2.492,7.723-5.928,7.723
	c-3.437,0-5.929-3.212-5.929-7.636c0-3.842,1.859-7.723,6.015-7.723C51.878,13.712,53.099,18.706,53.099,21.348z"/>
<path fill="#008CCF" d="M81.433,32.486V18.896c0-0.586,0.102-1.23,0.276-1.759c0.55-1.572,2.021-3.163,4.076-3.163
	c3.379,0,4.086,3.272,4.086,6.016v12.495h4.777V19.508c0-7.147-3.857-9.693-7.466-9.693c-2.001,0-3.54,0.489-4.986,1.589
	c-0.763,0.574-1.46,1.312-2.035,2.157c-1.188-2.332-3.456-3.746-6.106-3.746c-2.646,0-4.776,1.025-6.349,3.047l-0.13-2.566h-4.394
	l0.042,0.541c0.123,1.63,0.174,3.334,0.174,5.697v15.953h4.771V19.201c0-0.646,0.096-1.23,0.284-1.728
	c0.537-1.685,2.108-3.499,4.29-3.499c2.45,0,3.915,1.988,3.915,5.317v13.194H81.433z"/>
<path fill="#008CCF" d="M111.58,10.295h-5.123V9.662c0-5.037,2.061-5.621,3.615-5.621c0.861,0,1.607,0.147,2.238,0.436l0.594,0.275
	l0.709-4.021l-0.379-0.155c-0.473-0.197-1.766-0.651-3.473-0.651c-2.15,0-4.105,0.749-5.51,2.108
	c-1.734,1.647-2.613,4.259-2.613,7.761v0.503h-2.971v3.941h2.971v18.25h4.818v-18.25h5.123V10.295z"/>
<path fill="#008CCF" d="M124.416,9.814c-6.484,0-11.01,4.833-11.01,11.751c0,6.713,4.385,11.403,10.658,11.403
	c5.506,0,11.051-3.635,11.051-11.754C135.115,14.396,130.816,9.814,124.416,9.814z M130.17,21.348c0,4.475-2.494,7.723-5.928,7.723
	c-3.438,0-5.93-3.212-5.93-7.636c0-3.842,1.857-7.723,6.02-7.723C128.953,13.712,130.17,18.706,130.17,21.348z"/>
<path fill="#008CCF" d="M149.508,9.814c-2.287,0-4.348,1.273-5.592,3.349l-0.092-2.868h-4.398l0.035,0.537
	c0.123,1.811,0.176,3.839,0.176,6.576v15.078h4.814V20.691c0-0.617,0.08-1.186,0.166-1.705c0.51-2.793,2.299-4.529,4.666-4.529
	c0.473,0,0.834,0.036,1.207,0.118l0.613,0.136v-4.653l-0.379-0.097C150.309,9.859,149.957,9.814,149.508,9.814z"/>
<path fill="#008CCF" d="M162.248,10.295V5.465l-4.771,1.276v3.555h-3.285v3.941h3.285v11.049c0,2.845,0.514,4.709,1.611,5.848
	c1.021,1.171,2.592,1.791,4.539,1.791c1.441,0,2.723-0.199,3.605-0.562l0.336-0.137l-0.234-3.871l-0.607,0.163
	c-0.404,0.113-1.098,0.246-2.092,0.246c-1.236,0-2.387-0.438-2.387-3.608V14.236h5.512v-3.941H162.248z"/>
<path fill="#F4584C" d="M99.512,51.195h-13.26V38.854h-4.816v30.502h4.816V55.531h13.26v13.825h4.859V38.854h-4.859V51.195z"/>
<path fill="#F4584C" d="M119.953,46.689c-6.15,0-10.441,4.901-10.441,11.92c0,6.798,4.287,11.188,10.922,11.188
	c3.508,0,5.883-0.738,7.258-1.361l0.373-0.17l-0.891-3.746l-0.549,0.237c-1.287,0.547-2.873,1.055-5.668,1.055
	c-1.938,0-6.393-0.632-6.738-6.345h14.809l0.07-0.65c0.049-0.402,0.111-0.952,0.111-1.647
	C129.209,52.332,126.785,46.689,119.953,46.689z M124.471,55.698h-10.146c0.412-2.171,1.889-5.241,5.322-5.241
	c1.383,0,2.494,0.415,3.307,1.245C124.16,52.927,124.42,54.731,124.471,55.698z"/>
<path fill="#F4584C" d="M150.111,63.777v-7.923c0-5.998-2.963-9.166-8.557-9.166c-2.68,0-5.311,0.713-7.234,1.957l-0.33,0.22
	l1.219,3.52l0.533-0.349c1.451-0.937,3.412-1.498,5.246-1.498c2.836,0,4.287,1.456,4.307,4.329
	c-4.971,0.049-8.564,1.137-10.682,3.249c-1.361,1.347-2.053,3.076-2.053,5.135c0,3.277,2.4,6.588,6.982,6.588
	c2.436,0,4.693-0.938,6.225-2.558l0.238,2.075h4.559l-0.109-0.59C150.225,67.499,150.111,65.871,150.111,63.777z M145.383,58.543
	v3.178c0,0.315-0.066,0.689-0.193,1.065c-0.502,1.474-2.021,3.199-4.639,3.199c-1.961,0-3.127-1.185-3.127-3.17
	c0-1.031,0.32-1.845,0.984-2.494c1.205-1.182,3.504-1.778,6.844-1.778C145.295,58.543,145.338,58.543,145.383,58.543z"/>
<path fill="#F4584C" d="M162.285,42.395l-4.773,1.274v3.496h-3.281v3.942h3.281v11.048c0,2.848,0.516,4.712,1.609,5.852
	c1.025,1.169,2.596,1.791,4.537,1.791c1.439,0,2.725-0.203,3.607-0.563l0.334-0.138l-0.236-3.868l-0.598,0.164
	c-0.408,0.11-1.104,0.245-2.102,0.245c-1.232,0-2.379-0.439-2.379-3.608V51.106h5.512v-3.942h-5.512V42.395z"/>
<path fill="#F4584C" d="M0,21.294C0,7.433,12.074,0.18,22.835,0.18c4.542,0,8.535,0.52,12.4,1.551l-0.01,9.752
	c-3.745-1.49-5.397-2.064-10.364-2.064c-6.773,0-11.469,5.217-11.469,11.76c0,6.597,4.7,11.671,11.469,11.671
	c4.967,0,7.223-1.206,10.355-2.411l0.004,9.901c-3.56,1.149-7.657,1.78-12.751,1.78C11.482,42.121,0,34.654,0,21.294z"/>
<g>
	<path fill="#808080" d="M96.9,76.071l2.989,6.447c0.38,0.893,0.736,1.763,1.071,2.633h0.066c0.268-0.759,0.558-1.629,0.915-2.699
		l2.364-6.381h2.053l-3.168,7.764c-0.803,2.008-1.74,4.306-2.811,5.688c-0.959,1.227-2.053,1.852-3.391,1.852
		c-0.514,0-0.848-0.045-1.094-0.134l0.179-1.584c0.179,0.045,0.401,0.067,0.736,0.067c1.539,0,2.454-1.495,2.944-2.565
		c0.156-0.335,0.111-0.558-0.066-0.915l-4.997-10.173H96.9z"/>
	<path fill="#808080" d="M109.301,80.311v4.685h0.469l4.037-4.685h2.388l-4.685,4.863c1.739,0.2,2.788,1.36,3.636,3.301
		c0.29,0.714,0.647,1.763,1.138,2.633h-2.053c-0.289-0.469-0.646-1.316-1.004-2.209c-0.735-1.739-1.739-2.543-3.547-2.543h-0.379
		v4.752h-1.94V80.311H109.301z"/>
	<path fill="#808080" d="M118.043,83.835c0-1.383-0.045-2.499-0.09-3.524h1.74l0.111,1.852h0.045
		c0.78-1.316,2.074-2.075,3.837-2.075c2.633,0,4.596,2.209,4.596,5.466c0,3.882-2.387,5.8-4.931,5.8
		c-1.428,0-2.677-0.624-3.323-1.695h-0.045v5.867h-1.94V83.835z M119.983,86.713c0,0.29,0.022,0.558,0.089,0.803
		c0.357,1.361,1.54,2.298,2.945,2.298c2.074,0,3.279-1.695,3.279-4.172c0-2.142-1.138-3.993-3.213-3.993
		c-1.338,0-2.609,0.938-2.967,2.409c-0.066,0.246-0.134,0.536-0.134,0.781V86.713z"/>
	<path fill="#808080" d="M138.317,88.52c0,0.938,0.045,1.852,0.156,2.588h-1.762l-0.156-1.36h-0.067
		c-0.602,0.848-1.762,1.605-3.302,1.605c-2.186,0-3.301-1.539-3.301-3.101c0-2.61,2.319-4.038,6.491-4.016v-0.223
		c0-0.87-0.245-2.499-2.454-2.477c-1.026,0-2.074,0.29-2.833,0.803l-0.446-1.315c0.893-0.558,2.209-0.938,3.569-0.938
		c3.302,0,4.104,2.253,4.104,4.395V88.52z M136.422,85.598c-2.142-0.045-4.573,0.334-4.573,2.432c0,1.293,0.848,1.873,1.829,1.873
		c1.428,0,2.343-0.892,2.654-1.807c0.067-0.223,0.09-0.446,0.09-0.625V85.598z"/>
	<path fill="#808080" d="M139.296,77.254c0-0.625,0.49-1.138,1.138-1.138c0.603,0,1.07,0.491,1.07,1.138
		c0,0.603-0.445,1.138-1.115,1.138C139.765,78.392,139.296,77.856,139.296,77.254z M141.482,91.107V80.311h1.963v10.797H141.482z
		 M143.423,77.254c0-0.625,0.491-1.138,1.115-1.138c0.625,0,1.094,0.491,1.094,1.138c0,0.603-0.446,1.138-1.116,1.138
		C143.869,78.392,143.423,77.856,143.423,77.254z"/>
	<path fill="#808080" d="M148.597,80.311v4.35h5.109v-4.35h1.963v10.797h-1.963v-4.886h-5.109v4.886h-1.963V80.311H148.597z"/>
	<path fill="#808080" d="M166.462,88.52c0,0.938,0.045,1.852,0.156,2.588h-1.762l-0.156-1.36h-0.067
		c-0.602,0.848-1.762,1.605-3.302,1.605c-2.186,0-3.301-1.539-3.301-3.101c0-2.61,2.319-4.038,6.491-4.016v-0.223
		c0-0.87-0.245-2.499-2.454-2.477c-1.026,0-2.074,0.29-2.833,0.803l-0.446-1.315c0.893-0.558,2.209-0.938,3.569-0.938
		c3.302,0,4.104,2.253,4.104,4.395V88.52z M164.566,85.598c-2.142-0.045-4.573,0.334-4.573,2.432c0,1.293,0.848,1.873,1.829,1.873
		c1.428,0,2.343-0.892,2.654-1.807c0.067-0.223,0.09-0.446,0.09-0.625V85.598z"/>
</g>
</svg>
