<svg width="13" height="12" viewBox="0 0 13 12" fill="none" xmlns="http://www.w3.org/2000/svg">
<path d="M2.84997 11.9998V3.90303H0.158737V11.9998H2.8502H2.84997ZM1.50482 2.79776C2.44313 2.79776 3.02728 2.17598 3.02728 1.399C3.00964 0.604374 2.44313 0 1.52269 0C0.60155 0 0 0.604374 0 1.399C0 2.17598 0.583912 2.79776 1.48718 2.79776H1.50458H1.50482ZM4.3395 11.9998H7.03049V7.47872C7.03049 7.23697 7.04813 6.99475 7.11915 6.82214C7.31363 6.3384 7.75645 5.83774 8.50004 5.83774C9.47362 5.83774 9.86329 6.58015 9.86329 7.66873V11.9998H12.5543V7.35737C12.5543 4.8705 11.2268 3.71326 9.45622 3.71326C8.00454 3.71326 7.36701 4.52457 7.01286 5.07721H7.03073V3.90327H4.33973C4.37477 4.66285 4.3395 12 4.3395 12V11.9998Z" fill="white"/>
</svg>
