<svg width="12" height="12" viewBox="0 0 12 12" fill="none" xmlns="http://www.w3.org/2000/svg">
<path d="M8.22857 1.25982e-07H3.68571C2.71506 0.0218209 1.79021 0.417141 1.10367 1.10367C0.417141 1.79021 0.0218209 2.71506 1.25982e-07 3.68571V8.22857C-0.000254444 9.21414 0.385304 10.1607 1.07415 10.8655C1.763 11.5704 2.7004 11.9776 3.68571 12H8.22857C8.72384 12 9.21426 11.9024 9.67183 11.7129C10.1294 11.5234 10.5452 11.2456 10.8954 10.8954C11.2456 10.5452 11.5234 10.1294 11.7129 9.67183C11.9024 9.21426 12 8.72384 12 8.22857V3.68571C11.9776 2.7004 11.5704 1.763 10.8655 1.07415C10.1607 0.385304 9.21414 -0.000254444 8.22857 1.25982e-07ZM10.8 8.22857C10.8 8.91056 10.5291 9.56461 10.0468 10.0468C9.56461 10.5291 8.91056 10.8 8.22857 10.8H3.68571C3.00373 10.8 2.34968 10.5291 1.86744 10.0468C1.3852 9.56461 1.11429 8.91056 1.11429 8.22857V3.68571C1.11429 3.00373 1.3852 2.34968 1.86744 1.86744C2.34968 1.3852 3.00373 1.11429 3.68571 1.11429H8.22857C8.91056 1.11429 9.56461 1.3852 10.0468 1.86744C10.5291 2.34968 10.8 3.00373 10.8 3.68571V8.22857Z" fill="white"/>
<path d="M6 3C5.60603 3 5.21593 3.0776 4.85195 3.22836C4.48797 3.37913 4.15726 3.6001 3.87868 3.87868C3.6001 4.15726 3.37913 4.48797 3.22836 4.85195C3.0776 5.21593 3 5.60603 3 6C3 6.39397 3.0776 6.78407 3.22836 7.14805C3.37913 7.51203 3.6001 7.84274 3.87868 8.12132C4.15726 8.3999 4.48797 8.62087 4.85195 8.77164C5.21593 8.9224 5.60603 9 6 9C6.79565 9 7.55871 8.68393 8.12132 8.12132C8.68393 7.55871 9 6.79565 9 6C9 5.20435 8.68393 4.44129 8.12132 3.87868C7.55871 3.31607 6.79565 3 6 3ZM6 7.88571C5.49988 7.88571 5.02024 7.68704 4.6666 7.3334C4.31296 6.97976 4.11429 6.50012 4.11429 6C4.11429 5.49988 4.31296 5.02024 4.6666 4.6666C5.02024 4.31296 5.49988 4.11429 6 4.11429C6.50012 4.11429 6.97976 4.31296 7.3334 4.6666C7.68704 5.02024 7.88571 5.49988 7.88571 6C7.88571 6.50012 7.68704 6.97976 7.3334 7.3334C6.97976 7.68704 6.50012 7.88571 6 7.88571Z" fill="white"/>
<path d="M9.17143 3.17143C9.28509 3.17143 9.3941 3.12628 9.47447 3.0459C9.55485 2.96553 9.6 2.85652 9.6 2.74286C9.6 2.62919 9.55485 2.52018 9.47447 2.43981C9.3941 2.35944 9.28509 2.31429 9.17143 2.31429C9.05776 2.31429 8.94876 2.35944 8.86838 2.43981C8.78801 2.52018 8.74286 2.62919 8.74286 2.74286C8.74286 2.85652 8.78801 2.96553 8.86838 3.0459C8.94876 3.12628 9.05776 3.17143 9.17143 3.17143Z" fill="white"/>
</svg>
