<svg width="96" height="40" viewBox="0 0 96 40" fill="none" xmlns="http://www.w3.org/2000/svg">
<path d="M27.0876 5.65906C23.3798 5.65906 20.79 8.42371 20.79 12.3817C20.79 16.223 23.297 18.9049 26.8873 18.9049C30.0337 18.9049 33.2093 16.8258 33.2093 12.1814C33.2093 8.27983 30.7494 5.65906 27.0876 5.65906ZM30.3789 12.2566C30.3789 14.8172 28.9523 16.6753 26.987 16.6753C25.0216 16.6753 23.5951 14.8379 23.5951 12.3064C23.5951 10.1079 24.6596 7.88864 27.0368 7.88864C29.6802 7.88864 30.3789 10.7454 30.3789 12.2566Z" fill="white"/>
<path d="M46.5877 18.6294V10.8545C46.5877 10.5188 46.646 10.1511 46.7466 9.84835C47.0616 8.94842 47.9041 8.0391 49.0777 8.0391C51.012 8.0391 51.4183 9.91041 51.4183 11.4808V18.6294H54.1481V11.2053C54.1481 7.11567 51.943 5.65906 49.8789 5.65906C48.7345 5.65906 47.8543 5.93928 47.0268 6.56744C46.5877 6.89657 46.1908 7.31785 45.8617 7.80213C45.1828 6.46776 43.8841 5.65906 42.3683 5.65906C40.8543 5.65906 39.6356 6.2449 38.7366 7.40154L38.6614 5.93364H36.1478L36.1713 6.24396C36.2409 7.17585 36.271 8.151 36.271 9.50229V18.6294H39.0008V11.0294C39.0008 10.6599 39.0554 10.3242 39.1635 10.0411C39.4701 9.07725 40.3691 8.0391 41.6169 8.0391C43.019 8.0391 43.8569 9.17599 43.8569 11.0802V18.6294H46.5877Z" fill="white"/>
<path d="M63.8373 5.93365H60.9081V5.57161C60.9081 2.68942 62.0863 2.35559 62.9722 2.35559C63.4649 2.35559 63.8956 2.43929 64.2529 2.60479L64.5933 2.76183L65.0005 0.460775L64.7852 0.372381C64.5125 0.260479 63.7724 0 62.7972 0C61.5663 0 60.4454 0.428803 59.6433 1.20648C58.654 2.14872 58.1519 3.64294 58.1519 5.64684V5.93365H56.4498V8.18863H58.1519V18.6294H60.9081V8.18863H63.8373V5.93365Z" fill="white"/>
<path d="M71.1804 5.65906C67.4725 5.65906 64.8828 8.42371 64.8828 12.3817C64.8828 16.223 67.3898 18.9049 70.9801 18.9049C74.1274 18.9049 77.3021 16.8258 77.3021 12.1814C77.3021 8.27983 74.8421 5.65906 71.1804 5.65906ZM74.4716 12.2566C74.4716 14.8172 73.0451 16.6753 71.0798 16.6753C69.1144 16.6753 67.6879 14.8379 67.6879 12.3064C67.6879 10.1079 68.7524 7.88864 71.1305 7.88864C73.7729 7.88864 74.4716 10.7454 74.4716 12.2566Z" fill="white"/>
<path d="M85.5339 5.65906C84.2287 5.65906 83.0495 6.38595 82.3358 7.5755L82.2841 5.93364H79.7677L79.7874 6.24114C79.857 7.27741 79.888 8.43781 79.888 10.0035V18.6294H82.6433V11.8814C82.6433 11.5288 82.6894 11.2025 82.7383 10.9062C83.0298 9.30764 84.0529 8.31462 85.4089 8.31462C85.6778 8.31462 85.8838 8.33531 86.0982 8.38233L86.4489 8.45944V5.79823L86.2307 5.74275C85.9957 5.68351 85.7935 5.65906 85.5339 5.65906Z" fill="white"/>
<path d="M92.8253 5.93366V3.17034L90.0945 3.90006V5.93366H88.2166V8.18863H90.0945V14.5097C90.0945 16.1375 90.3907 17.2038 91.017 17.8546C91.6038 18.525 92.5009 18.8796 93.6133 18.8796C94.438 18.8796 95.1715 18.7658 95.6765 18.558L95.8674 18.4799L95.7329 16.2654L95.3897 16.3594C95.1555 16.4233 94.7568 16.4995 94.1888 16.4995C93.4808 16.4995 92.8253 16.2494 92.8253 14.4354V8.18863H95.9802V5.93366H92.8253Z" fill="white"/>
<path d="M56.932 29.3325H49.347V22.2723H46.5918V39.7244H49.347V31.8131H56.932V39.7244H59.7126V22.2723H56.932V29.3325Z" fill="white"/>
<path d="M68.6265 26.754C65.1105 26.754 62.6543 29.56 62.6543 33.5773C62.6543 37.4637 65.1067 39.9745 68.902 39.9745C70.9116 39.9745 72.2676 39.5523 73.0518 39.1978L73.269 39.099L72.7594 36.9578L72.4444 37.0914C71.7062 37.4045 70.8015 37.6951 69.202 37.6951C68.0914 37.6951 65.544 37.334 65.3456 34.0662H73.8182L73.8586 33.6948C73.8859 33.4635 73.9226 33.1466 73.9226 32.7507C73.9226 29.9841 72.5356 26.754 68.6265 26.754ZM71.2115 31.9109H65.4067C65.6427 30.6668 66.4862 28.9084 68.4507 28.9084C69.2424 28.9084 69.8791 29.1491 70.3445 29.6231C71.0348 30.3255 71.1843 31.3542 71.2115 31.9109Z" fill="white"/>
<path d="M85.8818 36.5309V31.9993C85.8818 28.568 84.1892 26.754 80.9863 26.754C79.4545 26.754 77.9461 27.1631 76.8487 27.8759L76.6588 27.9991L77.3528 30.0142L77.6631 29.8139C78.4915 29.2779 79.6115 28.9582 80.6609 28.9582C82.284 28.9582 83.1134 29.7914 83.1266 31.4351C80.281 31.4605 78.2254 32.084 77.0133 33.2895C76.2347 34.0634 75.8407 35.0536 75.8407 36.2309C75.8407 38.1041 77.2126 39.9999 79.8344 39.9999C81.2289 39.9999 82.52 39.462 83.3964 38.5367L83.5328 39.7244H86.1395L86.0774 39.384C85.9457 38.6608 85.8818 37.728 85.8818 36.5309ZM83.1764 33.5368V35.3545C83.1764 35.5351 83.1369 35.7514 83.0664 35.9629C82.7777 36.8074 81.9088 37.7947 80.4108 37.7947C79.2908 37.7947 78.6213 37.1168 78.6213 35.9808C78.6213 35.3921 78.8056 34.9257 79.1855 34.5543C79.8748 33.8782 81.1913 33.5368 83.1012 33.5368C83.1266 33.5368 83.151 33.5368 83.1764 33.5368Z" fill="white"/>
<path d="M92.8451 24.2973L90.1143 25.027V27.0286H88.2364V29.2836H90.1143V35.6047C90.1143 37.2324 90.4105 38.2988 91.0368 38.9495C91.6236 39.62 92.5207 39.9745 93.6331 39.9745C94.4578 39.9745 95.1913 39.8607 95.6963 39.6529L95.8872 39.5749L95.7527 37.3603L95.4095 37.4543C95.1753 37.5183 94.7766 37.5945 94.2086 37.5945C93.5005 37.5945 92.8451 37.3443 92.8451 35.5304V29.2836H96V27.0286H92.8451V24.2973Z" fill="white"/>
<path d="M0 12.2265C0 4.29706 6.90761 0.147217 13.0644 0.147217C15.6636 0.147217 17.947 0.443389 20.159 1.03377L20.1534 6.61387C18.0107 5.76066 17.066 5.43213 14.2239 5.43213C10.3478 5.43213 7.6624 8.41846 7.6624 12.1608C7.6624 15.9355 10.3509 18.8378 14.2239 18.8378C17.066 18.8378 18.3561 18.1483 20.1473 17.4589L20.1504 23.1231C18.1136 23.7802 15.7696 24.1411 12.8545 24.1411C6.56982 24.1411 0 19.869 0 12.2265Z" fill="white"/>
</svg>
